solid TriangleGroup
facet normal -4.714045e-01 8.164966e-01 -3.333333e-01
outer loop
vertex 0.000000e+00 0.000000e+00 1.000000e+00
vertex 9.428090e-01 0.000000e+00 -3.333333e-01
vertex -4.714045e-01 -8.164966e-01 -3.333333e-01
endloop
endfacet
facet normal 9.428090e-01 -3.845925e-16 -3.333333e-01
outer loop
vertex 0.000000e+00 0.000000e+00 1.000000e+00
vertex -4.714045e-01 -8.164966e-01 -3.333333e-01
vertex -4.714045e-01 8.164966e-01 -3.333333e-01
endloop
endfacet
facet normal -4.714045e-01 -8.164966e-01 -3.333333e-01
outer loop
vertex 0.000000e+00 0.000000e+00 1.000000e+00
vertex -4.714045e-01 8.164966e-01 -3.333333e-01
vertex 9.428090e-01 0.000000e+00 -3.333333e-01
endloop
endfacet
facet normal 0.000000e+00 0.000000e+00 1.000000e+00
outer loop
vertex 9.428090e-01 0.000000e+00 -3.333333e-01
vertex -4.714045e-01 8.164966e-01 -3.333333e-01
vertex -4.714045e-01 -8.164966e-01 -3.333333e-01
endloop
endfacet
endsolid TriangleGroup