solid TriangleGroup
facet normal 0.000000e+00 -3.568221e-01 -9.341724e-01
outer loop
vertex -5.257311e-01 0.000000e+00 8.506508e-01
vertex 0.000000e+00 8.506508e-01 5.257311e-01
vertex 5.257311e-01 0.000000e+00 8.506508e-01
endloop
endfacet
facet normal 5.773503e-01 -5.773503e-01 -5.773503e-01
outer loop
vertex -5.257311e-01 0.000000e+00 8.506508e-01
vertex -8.506508e-01 5.257311e-01 0.000000e+00
vertex 0.000000e+00 8.506508e-01 5.257311e-01
endloop
endfacet
facet normal 3.568221e-01 -9.341724e-01 0.000000e+00
outer loop
vertex -8.506508e-01 5.257311e-01 0.000000e+00
vertex 0.000000e+00 8.506508e-01 -5.257311e-01
vertex 0.000000e+00 8.506508e-01 5.257311e-01
endloop
endfacet
facet normal -3.568221e-01 -9.341724e-01 -0.000000e+00
outer loop
vertex 0.000000e+00 8.506508e-01 5.257311e-01
vertex 0.000000e+00 8.506508e-01 -5.257311e-01
vertex 8.506508e-01 5.257311e-01 0.000000e+00
endloop
endfacet
facet normal -5.773503e-01 -5.773503e-01 -5.773503e-01
outer loop
vertex 0.000000e+00 8.506508e-01 5.257311e-01
vertex 8.506508e-01 5.257311e-01 0.000000e+00
vertex 5.257311e-01 0.000000e+00 8.506508e-01
endloop
endfacet
facet normal -9.341724e-01 -0.000000e+00 -3.568221e-01
outer loop
vertex 8.506508e-01 5.257311e-01 0.000000e+00
vertex 8.506508e-01 -5.257311e-01 0.000000e+00
vertex 5.257311e-01 0.000000e+00 8.506508e-01
endloop
endfacet
facet normal -9.341724e-01 0.000000e+00 3.568221e-01
outer loop
vertex 8.506508e-01 5.257311e-01 0.000000e+00
vertex 5.257311e-01 0.000000e+00 -8.506508e-01
vertex 8.506508e-01 -5.257311e-01 0.000000e+00
endloop
endfacet
facet normal -5.773503e-01 -5.773503e-01 5.773503e-01
outer loop
vertex 0.000000e+00 8.506508e-01 -5.257311e-01
vertex 5.257311e-01 0.000000e+00 -8.506508e-01
vertex 8.506508e-01 5.257311e-01 0.000000e+00
endloop
endfacet
facet normal 0.000000e+00 -3.568221e-01 9.341724e-01
outer loop
vertex 0.000000e+00 8.506508e-01 -5.257311e-01
vertex -5.257311e-01 0.000000e+00 -8.506508e-01
vertex 5.257311e-01 0.000000e+00 -8.506508e-01
endloop
endfacet
facet normal -0.000000e+00 3.568221e-01 9.341724e-01
outer loop
vertex -5.257311e-01 0.000000e+00 -8.506508e-01
vertex 0.000000e+00 -8.506508e-01 -5.257311e-01
vertex 5.257311e-01 0.000000e+00 -8.506508e-01
endloop
endfacet
facet normal -5.773503e-01 5.773503e-01 5.773503e-01
outer loop
vertex 0.000000e+00 -8.506508e-01 -5.257311e-01
vertex 8.506508e-01 -5.257311e-01 0.000000e+00
vertex 5.257311e-01 0.000000e+00 -8.506508e-01
endloop
endfacet
facet normal -3.568221e-01 9.341724e-01 0.000000e+00
outer loop
vertex 0.000000e+00 -8.506508e-01 -5.257311e-01
vertex 0.000000e+00 -8.506508e-01 5.257311e-01
vertex 8.506508e-01 -5.257311e-01 0.000000e+00
endloop
endfacet
facet normal 3.568221e-01 9.341724e-01 -0.000000e+00
outer loop
vertex 0.000000e+00 -8.506508e-01 -5.257311e-01
vertex -8.506508e-01 -5.257311e-01 0.000000e+00
vertex 0.000000e+00 -8.506508e-01 5.257311e-01
endloop
endfacet
facet normal 5.773503e-01 5.773503e-01 -5.773503e-01
outer loop
vertex -8.506508e-01 -5.257311e-01 0.000000e+00
vertex -5.257311e-01 0.000000e+00 8.506508e-01
vertex 0.000000e+00 -8.506508e-01 5.257311e-01
endloop
endfacet
facet normal 0.000000e+00 3.568221e-01 -9.341724e-01
outer loop
vertex -5.257311e-01 0.000000e+00 8.506508e-01
vertex 5.257311e-01 0.000000e+00 8.506508e-01
vertex 0.000000e+00 -8.506508e-01 5.257311e-01
endloop
endfacet
facet normal -5.773503e-01 5.773503e-01 -5.773503e-01
outer loop
vertex 0.000000e+00 -8.506508e-01 5.257311e-01
vertex 5.257311e-01 0.000000e+00 8.506508e-01
vertex 8.506508e-01 -5.257311e-01 0.000000e+00
endloop
endfacet
facet normal 9.341724e-01 0.000000e+00 -3.568221e-01
outer loop
vertex -8.506508e-01 5.257311e-01 0.000000e+00
vertex -5.257311e-01 0.000000e+00 8.506508e-01
vertex -8.506508e-01 -5.257311e-01 0.000000e+00
endloop
endfacet
facet normal 9.341724e-01 0.000000e+00 3.568221e-01
outer loop
vertex -8.506508e-01 5.257311e-01 0.000000e+00
vertex -8.506508e-01 -5.257311e-01 0.000000e+00
vertex -5.257311e-01 0.000000e+00 -8.506508e-01
endloop
endfacet
facet normal 5.773503e-01 -5.773503e-01 5.773503e-01
outer loop
vertex -8.506508e-01 5.257311e-01 0.000000e+00
vertex -5.257311e-01 0.000000e+00 -8.506508e-01
vertex 0.000000e+00 8.506508e-01 -5.257311e-01
endloop
endfacet
facet normal 5.773503e-01 5.773503e-01 5.773503e-01
outer loop
vertex 0.000000e+00 -8.506508e-01 -5.257311e-01
vertex -5.257311e-01 0.000000e+00 -8.506508e-01
vertex -8.506508e-01 -5.257311e-01 0.000000e+00
endloop
endfacet
endsolid TriangleGroup