solid TriangleGroup
facet normal -4.176813e-01 4.176813e-01 -8.068982e-01
outer loop
vertex 0.000000e+00 0.000000e+00 1.000000e+00
vertex 8.164966e-01 0.000000e+00 5.773503e-01
vertex 4.714045e-01 -8.164966e-01 3.333333e-01
endloop
endfacet
facet normal -8.999780e-01 4.176813e-01 -1.248276e-01
outer loop
vertex 8.164966e-01 0.000000e+00 5.773503e-01
vertex 9.428090e-01 0.000000e+00 -3.333333e-01
vertex 4.714045e-01 -8.164966e-01 3.333333e-01
endloop
endfacet
facet normal -8.117116e-01 5.705632e-01 1.248276e-01
outer loop
vertex 9.428090e-01 0.000000e+00 -3.333333e-01
vertex 4.082483e-01 -7.071068e-01 -5.773503e-01
vertex 4.714045e-01 -8.164966e-01 3.333333e-01
endloop
endfacet
facet normal -8.826643e-02 9.882445e-01 1.248276e-01
outer loop
vertex 4.082483e-01 -7.071068e-01 -5.773503e-01
vertex -4.714045e-01 -8.164966e-01 -3.333333e-01
vertex 4.714045e-01 -8.164966e-01 3.333333e-01
endloop
endfacet
facet normal 8.826643e-02 9.882445e-01 -1.248276e-01
outer loop
vertex -4.714045e-01 -8.164966e-01 -3.333333e-01
vertex -4.082483e-01 -7.071068e-01 5.773503e-01
vertex 4.714045e-01 -8.164966e-01 3.333333e-01
endloop
endfacet
facet normal -1.528819e-01 5.705632e-01 -8.068982e-01
outer loop
vertex 0.000000e+00 0.000000e+00 1.000000e+00
vertex 4.714045e-01 -8.164966e-01 3.333333e-01
vertex -4.082483e-01 -7.071068e-01 5.773503e-01
endloop
endfacet
facet normal 5.705632e-01 1.528819e-01 -8.068982e-01
outer loop
vertex 0.000000e+00 0.000000e+00 1.000000e+00
vertex -4.082483e-01 -7.071068e-01 5.773503e-01
vertex -9.428090e-01 2.220446e-16 3.333333e-01
endloop
endfacet
facet normal 8.117116e-01 5.705632e-01 -1.248276e-01
outer loop
vertex -4.082483e-01 -7.071068e-01 5.773503e-01
vertex -4.714045e-01 -8.164966e-01 -3.333333e-01
vertex -9.428090e-01 2.220446e-16 3.333333e-01
endloop
endfacet
facet normal 8.999780e-01 4.176813e-01 1.248276e-01
outer loop
vertex -4.714045e-01 -8.164966e-01 -3.333333e-01
vertex -8.164966e-01 1.922963e-16 -5.773503e-01
vertex -9.428090e-01 2.220446e-16 3.333333e-01
endloop
endfacet
facet normal 8.999780e-01 -4.176813e-01 1.248276e-01
outer loop
vertex -8.164966e-01 1.922963e-16 -5.773503e-01
vertex -4.714045e-01 8.164966e-01 -3.333333e-01
vertex -9.428090e-01 2.220446e-16 3.333333e-01
endloop
endfacet
facet normal 8.117116e-01 -5.705632e-01 -1.248276e-01
outer loop
vertex -4.714045e-01 8.164966e-01 -3.333333e-01
vertex -4.082483e-01 7.071068e-01 5.773503e-01
vertex -9.428090e-01 2.220446e-16 3.333333e-01
endloop
endfacet
facet normal 5.705632e-01 -1.528819e-01 -8.068982e-01
outer loop
vertex 0.000000e+00 0.000000e+00 1.000000e+00
vertex -9.428090e-01 2.220446e-16 3.333333e-01
vertex -4.082483e-01 7.071068e-01 5.773503e-01
endloop
endfacet
facet normal -1.528819e-01 -5.705632e-01 -8.068982e-01
outer loop
vertex 0.000000e+00 0.000000e+00 1.000000e+00
vertex -4.082483e-01 7.071068e-01 5.773503e-01
vertex 4.714045e-01 8.164966e-01 3.333333e-01
endloop
endfacet
facet normal 8.826643e-02 -9.882445e-01 -1.248276e-01
outer loop
vertex -4.082483e-01 7.071068e-01 5.773503e-01
vertex -4.714045e-01 8.164966e-01 -3.333333e-01
vertex 4.714045e-01 8.164966e-01 3.333333e-01
endloop
endfacet
facet normal -8.826643e-02 -9.882445e-01 1.248276e-01
outer loop
vertex -4.714045e-01 8.164966e-01 -3.333333e-01
vertex 4.082483e-01 7.071068e-01 -5.773503e-01
vertex 4.714045e-01 8.164966e-01 3.333333e-01
endloop
endfacet
facet normal -8.117116e-01 -5.705632e-01 1.248276e-01
outer loop
vertex 4.082483e-01 7.071068e-01 -5.773503e-01
vertex 9.428090e-01 0.000000e+00 -3.333333e-01
vertex 4.714045e-01 8.164966e-01 3.333333e-01
endloop
endfacet
facet normal -8.999780e-01 -4.176813e-01 -1.248276e-01
outer loop
vertex 9.428090e-01 0.000000e+00 -3.333333e-01
vertex 8.164966e-01 0.000000e+00 5.773503e-01
vertex 4.714045e-01 8.164966e-01 3.333333e-01
endloop
endfacet
facet normal -4.176813e-01 -4.176813e-01 -8.068982e-01
outer loop
vertex 0.000000e+00 0.000000e+00 1.000000e+00
vertex 4.714045e-01 8.164966e-01 3.333333e-01
vertex 8.164966e-01 0.000000e+00 5.773503e-01
endloop
endfacet
facet normal -5.705632e-01 -1.528819e-01 8.068982e-01
outer loop
vertex 9.428090e-01 0.000000e+00 -3.333333e-01
vertex 4.082483e-01 7.071068e-01 -5.773503e-01
vertex -2.220446e-16 2.220446e-16 -1.000000e+00
endloop
endfacet
facet normal 1.528819e-01 -5.705632e-01 8.068982e-01
outer loop
vertex 4.082483e-01 7.071068e-01 -5.773503e-01
vertex -4.714045e-01 8.164966e-01 -3.333333e-01
vertex -2.220446e-16 2.220446e-16 -1.000000e+00
endloop
endfacet
facet normal 4.176813e-01 -4.176813e-01 8.068982e-01
outer loop
vertex -4.714045e-01 8.164966e-01 -3.333333e-01
vertex -8.164966e-01 1.922963e-16 -5.773503e-01
vertex -2.220446e-16 2.220446e-16 -1.000000e+00
endloop
endfacet
facet normal 4.176813e-01 4.176813e-01 8.068982e-01
outer loop
vertex -8.164966e-01 1.922963e-16 -5.773503e-01
vertex -4.714045e-01 -8.164966e-01 -3.333333e-01
vertex -2.220446e-16 2.220446e-16 -1.000000e+00
endloop
endfacet
facet normal 1.528819e-01 5.705632e-01 8.068982e-01
outer loop
vertex -4.714045e-01 -8.164966e-01 -3.333333e-01
vertex 4.082483e-01 -7.071068e-01 -5.773503e-01
vertex -2.220446e-16 2.220446e-16 -1.000000e+00
endloop
endfacet
facet normal -5.705632e-01 1.528819e-01 8.068982e-01
outer loop
vertex 9.428090e-01 0.000000e+00 -3.333333e-01
vertex -2.220446e-16 2.220446e-16 -1.000000e+00
vertex 4.082483e-01 -7.071068e-01 -5.773503e-01
endloop
endfacet
endsolid TriangleGroup
