solid TriangleGroup
facet normal -2.288298e-01 2.536303e-01 -9.398450e-01
outer loop
vertex 0.000000e+00 0.000000e+00 1.000000e+00
vertex 4.597008e-01 0.000000e+00 8.880738e-01
vertex 5.268352e-01 -3.340001e-01 7.815936e-01
endloop
endfacet
facet normal -6.529144e-01 1.077779e-01 -7.497245e-01
outer loop
vertex 4.597008e-01 0.000000e+00 8.880738e-01
vertex 8.164966e-01 0.000000e+00 5.773503e-01
vertex 5.268352e-01 -3.340001e-01 7.815936e-01
endloop
endfacet
facet normal -7.264741e-01 2.351872e-01 -6.456952e-01
outer loop
vertex 8.164966e-01 0.000000e+00 5.773503e-01
vertex 7.251092e-01 -4.597008e-01 5.127297e-01
vertex 5.268352e-01 -3.340001e-01 7.815936e-01
endloop
endfacet
facet normal -4.491669e-01 6.352653e-01 -6.282413e-01
outer loop
vertex 7.251092e-01 -4.597008e-01 5.127297e-01
vertex 4.714045e-01 -8.164966e-01 3.333333e-01
vertex 5.268352e-01 -3.340001e-01 7.815936e-01
endloop
endfacet
facet normal -5.156575e-01 6.142137e-01 -5.973599e-01
outer loop
vertex 4.714045e-01 -8.164966e-01 3.333333e-01
vertex 2.886751e-01 -5.000000e-01 8.164966e-01
vertex 5.268352e-01 -3.340001e-01 7.815936e-01
endloop
endfacet
facet normal -2.707534e-01 1.900273e-01 -9.437067e-01
outer loop
vertex 0.000000e+00 0.000000e+00 1.000000e+00
vertex 5.268352e-01 -3.340001e-01 7.815936e-01
vertex 2.886751e-01 -5.000000e-01 8.164966e-01
endloop
endfacet
facet normal -9.244851e-01 1.077779e-01 -3.656654e-01
outer loop
vertex 8.164966e-01 0.000000e+00 5.773503e-01
vertex 9.905177e-01 0.000000e+00 1.373855e-01
vertex 9.125053e-01 -3.340001e-01 2.361737e-01
endloop
endfacet
facet normal -9.623710e-01 2.536303e-01 9.753887e-02
outer loop
vertex 9.905177e-01 0.000000e+00 1.373855e-01
vertex 9.428090e-01 0.000000e+00 -3.333333e-01
vertex 9.125053e-01 -3.340001e-01 2.361737e-01
endloop
endfacet
facet normal -9.799863e-01 1.900273e-01 5.930015e-02
outer loop
vertex 9.428090e-01 0.000000e+00 -3.333333e-01
vertex 8.660254e-01 -5.000000e-01 0.000000e+00
vertex 9.125053e-01 -3.340001e-01 2.361737e-01
endloop
endfacet
facet normal -7.350821e-01 6.142137e-01 -2.870466e-01
outer loop
vertex 8.660254e-01 -5.000000e-01 0.000000e+00
vertex 4.714045e-01 -8.164966e-01 3.333333e-01
vertex 9.125053e-01 -3.340001e-01 2.361737e-01
endloop
endfacet
facet normal -7.420339e-01 6.352653e-01 -2.140648e-01
outer loop
vertex 4.714045e-01 -8.164966e-01 3.333333e-01
vertex 7.251092e-01 -4.597008e-01 5.127297e-01
vertex 9.125053e-01 -3.340001e-01 2.361737e-01
endloop
endfacet
facet normal -8.509253e-01 2.351872e-01 -4.696946e-01
outer loop
vertex 8.164966e-01 0.000000e+00 5.773503e-01
vertex 9.125053e-01 -3.340001e-01 2.361737e-01
vertex 7.251092e-01 -4.597008e-01 5.127297e-01
endloop
endfacet
facet normal -9.211728e-01 3.249875e-01 2.140648e-01
outer loop
vertex 9.428090e-01 0.000000e+00 -3.333333e-01
vertex 7.606672e-01 -3.981126e-01 -5.127297e-01
vertex 7.455052e-01 -6.232527e-01 -2.361737e-01
endloop
endfacet
facet normal -6.291407e-01 6.193294e-01 4.696946e-01
outer loop
vertex 7.606672e-01 -3.981126e-01 -5.127297e-01
vertex 4.082483e-01 -7.071068e-01 -5.773503e-01
vertex 7.455052e-01 -6.232527e-01 -2.361737e-01
endloop
endfacet
facet normal -5.555810e-01 7.467386e-01 3.656654e-01
outer loop
vertex 4.082483e-01 -7.071068e-01 -5.773503e-01
vertex 4.952588e-01 -8.578135e-01 -1.373855e-01
vertex 7.455052e-01 -6.232527e-01 -2.361737e-01
endloop
endfacet
facet normal -7.008357e-01 7.066226e-01 -9.753887e-02
outer loop
vertex 4.952588e-01 -8.578135e-01 -1.373855e-01
vertex 4.714045e-01 -8.164966e-01 3.333333e-01
vertex 7.455052e-01 -6.232527e-01 -2.361737e-01
endloop
endfacet
facet normal -6.545616e-01 7.536794e-01 -5.930015e-02
outer loop
vertex 4.714045e-01 -8.164966e-01 3.333333e-01
vertex 8.660254e-01 -5.000000e-01 0.000000e+00
vertex 7.455052e-01 -6.232527e-01 -2.361737e-01
endloop
endfacet
facet normal -8.994657e-01 3.294929e-01 2.870466e-01
outer loop
vertex 9.428090e-01 0.000000e+00 -3.333333e-01
vertex 7.455052e-01 -6.232527e-01 -2.361737e-01
vertex 8.660254e-01 -5.000000e-01 0.000000e+00
endloop
endfacet
facet normal -2.217846e-01 8.545166e-01 4.696946e-01
outer loop
vertex 4.082483e-01 -7.071068e-01 -5.773503e-01
vertex -3.555798e-02 -8.578135e-01 -5.127297e-01
vertex 1.670001e-01 -9.572528e-01 -2.361737e-01
endloop
endfacet
facet normal 1.791389e-01 9.602528e-01 2.140648e-01
outer loop
vertex -3.555798e-02 -8.578135e-01 -5.127297e-01
vertex -4.714045e-01 -8.164966e-01 -3.333333e-01
vertex 1.670001e-01 -9.572528e-01 -2.361737e-01
endloop
endfacet
facet normal 1.643836e-01 9.437067e-01 2.870466e-01
outer loop
vertex -4.714045e-01 -8.164966e-01 -3.333333e-01
vertex -4.419155e-16 -1.000000e+00 0.000000e+00
vertex 1.670001e-01 -9.572528e-01 -2.361737e-01
endloop
endfacet
facet normal -3.254247e-01 9.437067e-01 -5.930015e-02
outer loop
vertex -4.419155e-16 -1.000000e+00 0.000000e+00
vertex 4.714045e-01 -8.164966e-01 3.333333e-01
vertex 1.670001e-01 -9.572528e-01 -2.361737e-01
endloop
endfacet
facet normal -2.615352e-01 9.602528e-01 -9.753887e-02
outer loop
vertex 4.714045e-01 -8.164966e-01 3.333333e-01
vertex 4.952588e-01 -8.578135e-01 -1.373855e-01
vertex 1.670001e-01 -9.572528e-01 -2.361737e-01
endloop
endfacet
facet normal -3.689041e-01 8.545166e-01 3.656654e-01
outer loop
vertex 4.082483e-01 -7.071068e-01 -5.773503e-01
vertex 1.670001e-01 -9.572528e-01 -2.361737e-01
vertex 4.952588e-01 -8.578135e-01 -1.373855e-01
endloop
endfacet
facet normal 2.615352e-01 9.602528e-01 9.753887e-02
outer loop
vertex -4.714045e-01 -8.164966e-01 -3.333333e-01
vertex -4.952588e-01 -8.578135e-01 1.373855e-01
vertex -1.670001e-01 -9.572528e-01 2.361737e-01
endloop
endfacet
facet normal 3.689041e-01 8.545166e-01 -3.656654e-01
outer loop
vertex -4.952588e-01 -8.578135e-01 1.373855e-01
vertex -4.082483e-01 -7.071068e-01 5.773503e-01
vertex -1.670001e-01 -9.572528e-01 2.361737e-01
endloop
endfacet
facet normal 2.217846e-01 8.545166e-01 -4.696946e-01
outer loop
vertex -4.082483e-01 -7.071068e-01 5.773503e-01
vertex 3.555798e-02 -8.578135e-01 5.127297e-01
vertex -1.670001e-01 -9.572528e-01 2.361737e-01
endloop
endfacet
facet normal -1.791389e-01 9.602528e-01 -2.140648e-01
outer loop
vertex 3.555798e-02 -8.578135e-01 5.127297e-01
vertex 4.714045e-01 -8.164966e-01 3.333333e-01
vertex -1.670001e-01 -9.572528e-01 2.361737e-01
endloop
endfacet
facet normal -1.643836e-01 9.437067e-01 -2.870466e-01
outer loop
vertex 4.714045e-01 -8.164966e-01 3.333333e-01
vertex -4.419155e-16 -1.000000e+00 0.000000e+00
vertex -1.670001e-01 -9.572528e-01 2.361737e-01
endloop
endfacet
facet normal 3.254247e-01 9.437067e-01 5.930015e-02
outer loop
vertex -4.714045e-01 -8.164966e-01 -3.333333e-01
vertex -1.670001e-01 -9.572528e-01 2.361737e-01
vertex -4.419155e-16 -1.000000e+00 0.000000e+00
endloop
endfacet
facet normal -2.919174e-02 3.294929e-01 -9.437067e-01
outer loop
vertex 0.000000e+00 0.000000e+00 1.000000e+00
vertex 2.886751e-01 -5.000000e-01 8.164966e-01
vertex 2.583500e-02 -6.232527e-01 7.815936e-01
endloop
endfacet
facet normal -2.740959e-01 7.536794e-01 -5.973599e-01
outer loop
vertex 2.886751e-01 -5.000000e-01 8.164966e-01
vertex 4.714045e-01 -8.164966e-01 3.333333e-01
vertex 2.583500e-02 -6.232527e-01 7.815936e-01
endloop
endfacet
facet normal -3.255724e-01 7.066226e-01 -6.282413e-01
outer loop
vertex 4.714045e-01 -8.164966e-01 3.333333e-01
vertex 3.555798e-02 -8.578135e-01 5.127297e-01
vertex 2.583500e-02 -6.232527e-01 7.815936e-01
endloop
endfacet
facet normal 1.595590e-01 7.467386e-01 -6.456952e-01
outer loop
vertex 3.555798e-02 -8.578135e-01 5.127297e-01
vertex -4.082483e-01 -7.071068e-01 5.773503e-01
vertex 2.583500e-02 -6.232527e-01 7.815936e-01
endloop
endfacet
facet normal 2.331188e-01 6.193294e-01 -7.497245e-01
outer loop
vertex -4.082483e-01 -7.071068e-01 5.773503e-01
vertex -2.298504e-01 -3.981126e-01 8.880738e-01
vertex 2.583500e-02 -6.232527e-01 7.815936e-01
endloop
endfacet
facet normal -1.052354e-01 3.249875e-01 -9.398450e-01
outer loop
vertex 0.000000e+00 0.000000e+00 1.000000e+00
vertex 2.583500e-02 -6.232527e-01 7.815936e-01
vertex -2.298504e-01 -3.981126e-01 8.880738e-01
endloop
endfacet
facet normal 3.340651e-01 7.135728e-02 -9.398450e-01
outer loop
vertex 0.000000e+00 0.000000e+00 1.000000e+00
vertex -2.298504e-01 -3.981126e-01 8.880738e-01
vertex -5.526702e-01 -2.892526e-01 7.815936e-01
endloop
endfacet
facet normal 4.197956e-01 5.115515e-01 -7.497245e-01
outer loop
vertex -2.298504e-01 -3.981126e-01 8.880738e-01
vertex -4.082483e-01 -7.071068e-01 5.773503e-01
vertex -5.526702e-01 -2.892526e-01 7.815936e-01
endloop
endfacet
facet normal 5.669151e-01 5.115515e-01 -6.456952e-01
outer loop
vertex -4.082483e-01 -7.071068e-01 5.773503e-01
vertex -7.606672e-01 -3.981126e-01 5.127297e-01
vertex -5.526702e-01 -2.892526e-01 7.815936e-01
endloop
endfacet
facet normal 7.747393e-01 7.135728e-02 -6.282413e-01
outer loop
vertex -7.606672e-01 -3.981126e-01 5.127297e-01
vertex -9.428090e-01 2.220446e-16 3.333333e-01
vertex -5.526702e-01 -2.892526e-01 7.815936e-01
endloop
endfacet
facet normal 7.897535e-01 1.394657e-01 -5.973599e-01
outer loop
vertex -9.428090e-01 2.220446e-16 3.333333e-01
vertex -5.773503e-01 1.359740e-16 8.164966e-01
vertex -5.526702e-01 -2.892526e-01 7.815936e-01
endloop
endfacet
facet normal 2.999451e-01 1.394657e-01 -9.437067e-01
outer loop
vertex 0.000000e+00 0.000000e+00 1.000000e+00
vertex -5.526702e-01 -2.892526e-01 7.815936e-01
vertex -5.773503e-01 1.359740e-16 8.164966e-01
endloop
endfacet
facet normal 5.555810e-01 7.467386e-01 -3.656654e-01
outer loop
vertex -4.082483e-01 -7.071068e-01 5.773503e-01
vertex -4.952588e-01 -8.578135e-01 1.373855e-01
vertex -7.455052e-01 -6.232527e-01 2.361737e-01
endloop
endfacet
facet normal 7.008357e-01 7.066226e-01 9.753887e-02
outer loop
vertex -4.952588e-01 -8.578135e-01 1.373855e-01
vertex -4.714045e-01 -8.164966e-01 -3.333333e-01
vertex -7.455052e-01 -6.232527e-01 2.361737e-01
endloop
endfacet
facet normal 6.545616e-01 7.536794e-01 5.930015e-02
outer loop
vertex -4.714045e-01 -8.164966e-01 -3.333333e-01
vertex -8.660254e-01 -5.000000e-01 -1.359740e-16
vertex -7.455052e-01 -6.232527e-01 2.361737e-01
endloop
endfacet
facet normal 8.994657e-01 3.294929e-01 -2.870466e-01
outer loop
vertex -8.660254e-01 -5.000000e-01 -1.359740e-16
vertex -9.428090e-01 2.220446e-16 3.333333e-01
vertex -7.455052e-01 -6.232527e-01 2.361737e-01
endloop
endfacet
facet normal 9.211728e-01 3.249875e-01 -2.140648e-01
outer loop
vertex -9.428090e-01 2.220446e-16 3.333333e-01
vertex -7.606672e-01 -3.981126e-01 5.127297e-01
vertex -7.455052e-01 -6.232527e-01 2.361737e-01
endloop
endfacet
facet normal 6.291407e-01 6.193294e-01 -4.696946e-01
outer loop
vertex -4.082483e-01 -7.071068e-01 5.773503e-01
vertex -7.455052e-01 -6.232527e-01 2.361737e-01
vertex -7.606672e-01 -3.981126e-01 5.127297e-01
endloop
endfacet
facet normal 7.420339e-01 6.352653e-01 2.140648e-01
outer loop
vertex -4.714045e-01 -8.164966e-01 -3.333333e-01
vertex -7.251092e-01 -4.597008e-01 -5.127297e-01
vertex -9.125053e-01 -3.340001e-01 -2.361737e-01
endloop
endfacet
facet normal 8.509253e-01 2.351872e-01 4.696946e-01
outer loop
vertex -7.251092e-01 -4.597008e-01 -5.127297e-01
vertex -8.164966e-01 1.922963e-16 -5.773503e-01
vertex -9.125053e-01 -3.340001e-01 -2.361737e-01
endloop
endfacet
facet normal 9.244851e-01 1.077779e-01 3.656654e-01
outer loop
vertex -8.164966e-01 1.922963e-16 -5.773503e-01
vertex -9.905177e-01 2.332806e-16 -1.373855e-01
vertex -9.125053e-01 -3.340001e-01 -2.361737e-01
endloop
endfacet
facet normal 9.623710e-01 2.536303e-01 -9.753887e-02
outer loop
vertex -9.905177e-01 2.332806e-16 -1.373855e-01
vertex -9.428090e-01 2.220446e-16 3.333333e-01
vertex -9.125053e-01 -3.340001e-01 -2.361737e-01
endloop
endfacet
facet normal 9.799863e-01 1.900273e-01 -5.930015e-02
outer loop
vertex -9.428090e-01 2.220446e-16 3.333333e-01
vertex -8.660254e-01 -5.000000e-01 -1.359740e-16
vertex -9.125053e-01 -3.340001e-01 -2.361737e-01
endloop
endfacet
facet normal 7.350821e-01 6.142137e-01 2.870466e-01
outer loop
vertex -4.714045e-01 -8.164966e-01 -3.333333e-01
vertex -9.125053e-01 -3.340001e-01 -2.361737e-01
vertex -8.660254e-01 -5.000000e-01 -1.359740e-16
endloop
endfacet
facet normal 8.509253e-01 -2.351872e-01 4.696946e-01
outer loop
vertex -8.164966e-01 1.922963e-16 -5.773503e-01
vertex -7.251092e-01 4.597008e-01 -5.127297e-01
vertex -9.125053e-01 3.340001e-01 -2.361737e-01
endloop
endfacet
facet normal 7.420339e-01 -6.352653e-01 2.140648e-01
outer loop
vertex -7.251092e-01 4.597008e-01 -5.127297e-01
vertex -4.714045e-01 8.164966e-01 -3.333333e-01
vertex -9.125053e-01 3.340001e-01 -2.361737e-01
endloop
endfacet
facet normal 7.350821e-01 -6.142137e-01 2.870466e-01
outer loop
vertex -4.714045e-01 8.164966e-01 -3.333333e-01
vertex -8.660254e-01 5.000000e-01 -1.359740e-16
vertex -9.125053e-01 3.340001e-01 -2.361737e-01
endloop
endfacet
facet normal 9.799863e-01 -1.900273e-01 -5.930015e-02
outer loop
vertex -8.660254e-01 5.000000e-01 -1.359740e-16
vertex -9.428090e-01 2.220446e-16 3.333333e-01
vertex -9.125053e-01 3.340001e-01 -2.361737e-01
endloop
endfacet
facet normal 9.623710e-01 -2.536303e-01 -9.753887e-02
outer loop
vertex -9.428090e-01 2.220446e-16 3.333333e-01
vertex -9.905177e-01 2.332806e-16 -1.373855e-01
vertex -9.125053e-01 3.340001e-01 -2.361737e-01
endloop
endfacet
facet normal 9.244851e-01 -1.077779e-01 3.656654e-01
outer loop
vertex -8.164966e-01 1.922963e-16 -5.773503e-01
vertex -9.125053e-01 3.340001e-01 -2.361737e-01
vertex -9.905177e-01 2.332806e-16 -1.373855e-01
endloop
endfacet
facet normal 7.008357e-01 -7.066226e-01 9.753887e-02
outer loop
vertex -4.714045e-01 8.164966e-01 -3.333333e-01
vertex -4.952588e-01 8.578135e-01 1.373855e-01
vertex -7.455052e-01 6.232527e-01 2.361737e-01
endloop
endfacet
facet normal 5.555810e-01 -7.467386e-01 -3.656654e-01
outer loop
vertex -4.952588e-01 8.578135e-01 1.373855e-01
vertex -4.082483e-01 7.071068e-01 5.773503e-01
vertex -7.455052e-01 6.232527e-01 2.361737e-01
endloop
endfacet
facet normal 6.291407e-01 -6.193294e-01 -4.696946e-01
outer loop
vertex -4.082483e-01 7.071068e-01 5.773503e-01
vertex -7.606672e-01 3.981126e-01 5.127297e-01
vertex -7.455052e-01 6.232527e-01 2.361737e-01
endloop
endfacet
facet normal 9.211728e-01 -3.249875e-01 -2.140648e-01
outer loop
vertex -7.606672e-01 3.981126e-01 5.127297e-01
vertex -9.428090e-01 2.220446e-16 3.333333e-01
vertex -7.455052e-01 6.232527e-01 2.361737e-01
endloop
endfacet
facet normal 8.994657e-01 -3.294929e-01 -2.870466e-01
outer loop
vertex -9.428090e-01 2.220446e-16 3.333333e-01
vertex -8.660254e-01 5.000000e-01 -1.359740e-16
vertex -7.455052e-01 6.232527e-01 2.361737e-01
endloop
endfacet
facet normal 6.545616e-01 -7.536794e-01 5.930015e-02
outer loop
vertex -4.714045e-01 8.164966e-01 -3.333333e-01
vertex -7.455052e-01 6.232527e-01 2.361737e-01
vertex -8.660254e-01 5.000000e-01 -1.359740e-16
endloop
endfacet
facet normal 2.999451e-01 -1.394657e-01 -9.437067e-01
outer loop
vertex 0.000000e+00 0.000000e+00 1.000000e+00
vertex -5.773503e-01 1.359740e-16 8.164966e-01
vertex -5.526702e-01 2.892526e-01 7.815936e-01
endloop
endfacet
facet normal 7.897535e-01 -1.394657e-01 -5.973599e-01
outer loop
vertex -5.773503e-01 1.359740e-16 8.164966e-01
vertex -9.428090e-01 2.220446e-16 3.333333e-01
vertex -5.526702e-01 2.892526e-01 7.815936e-01
endloop
endfacet
facet normal 7.747393e-01 -7.135728e-02 -6.282413e-01
outer loop
vertex -9.428090e-01 2.220446e-16 3.333333e-01
vertex -7.606672e-01 3.981126e-01 5.127297e-01
vertex -5.526702e-01 2.892526e-01 7.815936e-01
endloop
endfacet
facet normal 5.669151e-01 -5.115515e-01 -6.456952e-01
outer loop
vertex -7.606672e-01 3.981126e-01 5.127297e-01
vertex -4.082483e-01 7.071068e-01 5.773503e-01
vertex -5.526702e-01 2.892526e-01 7.815936e-01
endloop
endfacet
facet normal 4.197956e-01 -5.115515e-01 -7.497245e-01
outer loop
vertex -4.082483e-01 7.071068e-01 5.773503e-01
vertex -2.298504e-01 3.981126e-01 8.880738e-01
vertex -5.526702e-01 2.892526e-01 7.815936e-01
endloop
endfacet
facet normal 3.340651e-01 -7.135728e-02 -9.398450e-01
outer loop
vertex 0.000000e+00 0.000000e+00 1.000000e+00
vertex -5.526702e-01 2.892526e-01 7.815936e-01
vertex -2.298504e-01 3.981126e-01 8.880738e-01
endloop
endfacet
facet normal -1.052354e-01 -3.249875e-01 -9.398450e-01
outer loop
vertex 0.000000e+00 0.000000e+00 1.000000e+00
vertex -2.298504e-01 3.981126e-01 8.880738e-01
vertex 2.583500e-02 6.232527e-01 7.815936e-01
endloop
endfacet
facet normal 2.331188e-01 -6.193294e-01 -7.497245e-01
outer loop
vertex -2.298504e-01 3.981126e-01 8.880738e-01
vertex -4.082483e-01 7.071068e-01 5.773503e-01
vertex 2.583500e-02 6.232527e-01 7.815936e-01
endloop
endfacet
facet normal 1.595590e-01 -7.467386e-01 -6.456952e-01
outer loop
vertex -4.082483e-01 7.071068e-01 5.773503e-01
vertex 3.555798e-02 8.578135e-01 5.127297e-01
vertex 2.583500e-02 6.232527e-01 7.815936e-01
endloop
endfacet
facet normal -3.255724e-01 -7.066226e-01 -6.282413e-01
outer loop
vertex 3.555798e-02 8.578135e-01 5.127297e-01
vertex 4.714045e-01 8.164966e-01 3.333333e-01
vertex 2.583500e-02 6.232527e-01 7.815936e-01
endloop
endfacet
facet normal -2.740959e-01 -7.536794e-01 -5.973599e-01
outer loop
vertex 4.714045e-01 8.164966e-01 3.333333e-01
vertex 2.886751e-01 5.000000e-01 8.164966e-01
vertex 2.583500e-02 6.232527e-01 7.815936e-01
endloop
endfacet
facet normal -2.919174e-02 -3.294929e-01 -9.437067e-01
outer loop
vertex 0.000000e+00 0.000000e+00 1.000000e+00
vertex 2.583500e-02 6.232527e-01 7.815936e-01
vertex 2.886751e-01 5.000000e-01 8.164966e-01
endloop
endfacet
facet normal 3.689041e-01 -8.545166e-01 -3.656654e-01
outer loop
vertex -4.082483e-01 7.071068e-01 5.773503e-01
vertex -4.952588e-01 8.578135e-01 1.373855e-01
vertex -1.670001e-01 9.572528e-01 2.361737e-01
endloop
endfacet
facet normal 2.615352e-01 -9.602528e-01 9.753887e-02
outer loop
vertex -4.952588e-01 8.578135e-01 1.373855e-01
vertex -4.714045e-01 8.164966e-01 -3.333333e-01
vertex -1.670001e-01 9.572528e-01 2.361737e-01
endloop
endfacet
facet normal 3.254247e-01 -9.437067e-01 5.930015e-02
outer loop
vertex -4.714045e-01 8.164966e-01 -3.333333e-01
vertex 2.719480e-16 1.000000e+00 -6.798700e-17
vertex -1.670001e-01 9.572528e-01 2.361737e-01
endloop
endfacet
facet normal -1.643836e-01 -9.437067e-01 -2.870466e-01
outer loop
vertex 2.719480e-16 1.000000e+00 -6.798700e-17
vertex 4.714045e-01 8.164966e-01 3.333333e-01
vertex -1.670001e-01 9.572528e-01 2.361737e-01
endloop
endfacet
facet normal -1.791389e-01 -9.602528e-01 -2.140648e-01
outer loop
vertex 4.714045e-01 8.164966e-01 3.333333e-01
vertex 3.555798e-02 8.578135e-01 5.127297e-01
vertex -1.670001e-01 9.572528e-01 2.361737e-01
endloop
endfacet
facet normal 2.217846e-01 -8.545166e-01 -4.696946e-01
outer loop
vertex -4.082483e-01 7.071068e-01 5.773503e-01
vertex -1.670001e-01 9.572528e-01 2.361737e-01
vertex 3.555798e-02 8.578135e-01 5.127297e-01
endloop
endfacet
facet normal 1.791389e-01 -9.602528e-01 2.140648e-01
outer loop
vertex -4.714045e-01 8.164966e-01 -3.333333e-01
vertex -3.555798e-02 8.578135e-01 -5.127297e-01
vertex 1.670001e-01 9.572528e-01 -2.361737e-01
endloop
endfacet
facet normal -2.217846e-01 -8.545166e-01 4.696946e-01
outer loop
vertex -3.555798e-02 8.578135e-01 -5.127297e-01
vertex 4.082483e-01 7.071068e-01 -5.773503e-01
vertex 1.670001e-01 9.572528e-01 -2.361737e-01
endloop
endfacet
facet normal -3.689041e-01 -8.545166e-01 3.656654e-01
outer loop
vertex 4.082483e-01 7.071068e-01 -5.773503e-01
vertex 4.952588e-01 8.578135e-01 -1.373855e-01
vertex 1.670001e-01 9.572528e-01 -2.361737e-01
endloop
endfacet
facet normal -2.615352e-01 -9.602528e-01 -9.753887e-02
outer loop
vertex 4.952588e-01 8.578135e-01 -1.373855e-01
vertex 4.714045e-01 8.164966e-01 3.333333e-01
vertex 1.670001e-01 9.572528e-01 -2.361737e-01
endloop
endfacet
facet normal -3.254247e-01 -9.437067e-01 -5.930015e-02
outer loop
vertex 4.714045e-01 8.164966e-01 3.333333e-01
vertex 2.719480e-16 1.000000e+00 -6.798700e-17
vertex 1.670001e-01 9.572528e-01 -2.361737e-01
endloop
endfacet
facet normal 1.643836e-01 -9.437067e-01 2.870466e-01
outer loop
vertex -4.714045e-01 8.164966e-01 -3.333333e-01
vertex 1.670001e-01 9.572528e-01 -2.361737e-01
vertex 2.719480e-16 1.000000e+00 -6.798700e-17
endloop
endfacet
facet normal -6.291407e-01 -6.193294e-01 4.696946e-01
outer loop
vertex 4.082483e-01 7.071068e-01 -5.773503e-01
vertex 7.606672e-01 3.981126e-01 -5.127297e-01
vertex 7.455052e-01 6.232527e-01 -2.361737e-01
endloop
endfacet
facet normal -9.211728e-01 -3.249875e-01 2.140648e-01
outer loop
vertex 7.606672e-01 3.981126e-01 -5.127297e-01
vertex 9.428090e-01 0.000000e+00 -3.333333e-01
vertex 7.455052e-01 6.232527e-01 -2.361737e-01
endloop
endfacet
facet normal -8.994657e-01 -3.294929e-01 2.870466e-01
outer loop
vertex 9.428090e-01 0.000000e+00 -3.333333e-01
vertex 8.660254e-01 5.000000e-01 -6.798700e-17
vertex 7.455052e-01 6.232527e-01 -2.361737e-01
endloop
endfacet
facet normal -6.545616e-01 -7.536794e-01 -5.930015e-02
outer loop
vertex 8.660254e-01 5.000000e-01 -6.798700e-17
vertex 4.714045e-01 8.164966e-01 3.333333e-01
vertex 7.455052e-01 6.232527e-01 -2.361737e-01
endloop
endfacet
facet normal -7.008357e-01 -7.066226e-01 -9.753887e-02
outer loop
vertex 4.714045e-01 8.164966e-01 3.333333e-01
vertex 4.952588e-01 8.578135e-01 -1.373855e-01
vertex 7.455052e-01 6.232527e-01 -2.361737e-01
endloop
endfacet
facet normal -5.555810e-01 -7.467386e-01 3.656654e-01
outer loop
vertex 4.082483e-01 7.071068e-01 -5.773503e-01
vertex 7.455052e-01 6.232527e-01 -2.361737e-01
vertex 4.952588e-01 8.578135e-01 -1.373855e-01
endloop
endfacet
facet normal -9.623710e-01 -2.536303e-01 9.753887e-02
outer loop
vertex 9.428090e-01 0.000000e+00 -3.333333e-01
vertex 9.905177e-01 0.000000e+00 1.373855e-01
vertex 9.125053e-01 3.340001e-01 2.361737e-01
endloop
endfacet
facet normal -9.244851e-01 -1.077779e-01 -3.656654e-01
outer loop
vertex 9.905177e-01 0.000000e+00 1.373855e-01
vertex 8.164966e-01 0.000000e+00 5.773503e-01
vertex 9.125053e-01 3.340001e-01 2.361737e-01
endloop
endfacet
facet normal -8.509253e-01 -2.351872e-01 -4.696946e-01
outer loop
vertex 8.164966e-01 0.000000e+00 5.773503e-01
vertex 7.251092e-01 4.597008e-01 5.127297e-01
vertex 9.125053e-01 3.340001e-01 2.361737e-01
endloop
endfacet
facet normal -7.420339e-01 -6.352653e-01 -2.140648e-01
outer loop
vertex 7.251092e-01 4.597008e-01 5.127297e-01
vertex 4.714045e-01 8.164966e-01 3.333333e-01
vertex 9.125053e-01 3.340001e-01 2.361737e-01
endloop
endfacet
facet normal -7.350821e-01 -6.142137e-01 -2.870466e-01
outer loop
vertex 4.714045e-01 8.164966e-01 3.333333e-01
vertex 8.660254e-01 5.000000e-01 -6.798700e-17
vertex 9.125053e-01 3.340001e-01 2.361737e-01
endloop
endfacet
facet normal -9.799863e-01 -1.900273e-01 5.930015e-02
outer loop
vertex 9.428090e-01 0.000000e+00 -3.333333e-01
vertex 9.125053e-01 3.340001e-01 2.361737e-01
vertex 8.660254e-01 5.000000e-01 -6.798700e-17
endloop
endfacet
facet normal -2.707534e-01 -1.900273e-01 -9.437067e-01
outer loop
vertex 0.000000e+00 0.000000e+00 1.000000e+00
vertex 2.886751e-01 5.000000e-01 8.164966e-01
vertex 5.268352e-01 3.340001e-01 7.815936e-01
endloop
endfacet
facet normal -5.156575e-01 -6.142137e-01 -5.973599e-01
outer loop
vertex 2.886751e-01 5.000000e-01 8.164966e-01
vertex 4.714045e-01 8.164966e-01 3.333333e-01
vertex 5.268352e-01 3.340001e-01 7.815936e-01
endloop
endfacet
facet normal -4.491669e-01 -6.352653e-01 -6.282413e-01
outer loop
vertex 4.714045e-01 8.164966e-01 3.333333e-01
vertex 7.251092e-01 4.597008e-01 5.127297e-01
vertex 5.268352e-01 3.340001e-01 7.815936e-01
endloop
endfacet
facet normal -7.264741e-01 -2.351872e-01 -6.456952e-01
outer loop
vertex 7.251092e-01 4.597008e-01 5.127297e-01
vertex 8.164966e-01 0.000000e+00 5.773503e-01
vertex 5.268352e-01 3.340001e-01 7.815936e-01
endloop
endfacet
facet normal -6.529144e-01 -1.077779e-01 -7.497245e-01
outer loop
vertex 8.164966e-01 0.000000e+00 5.773503e-01
vertex 4.597008e-01 0.000000e+00 8.880738e-01
vertex 5.268352e-01 3.340001e-01 7.815936e-01
endloop
endfacet
facet normal -2.288298e-01 -2.536303e-01 -9.398450e-01
outer loop
vertex 0.000000e+00 0.000000e+00 1.000000e+00
vertex 5.268352e-01 3.340001e-01 7.815936e-01
vertex 4.597008e-01 0.000000e+00 8.880738e-01
endloop
endfacet
facet normal -7.747393e-01 -7.135728e-02 6.282413e-01
outer loop
vertex 9.428090e-01 0.000000e+00 -3.333333e-01
vertex 7.606672e-01 3.981126e-01 -5.127297e-01
vertex 5.526702e-01 2.892526e-01 -7.815936e-01
endloop
endfacet
facet normal -5.669151e-01 -5.115515e-01 6.456952e-01
outer loop
vertex 7.606672e-01 3.981126e-01 -5.127297e-01
vertex 4.082483e-01 7.071068e-01 -5.773503e-01
vertex 5.526702e-01 2.892526e-01 -7.815936e-01
endloop
endfacet
facet normal -4.197956e-01 -5.115515e-01 7.497245e-01
outer loop
vertex 4.082483e-01 7.071068e-01 -5.773503e-01
vertex 2.298504e-01 3.981126e-01 -8.880738e-01
vertex 5.526702e-01 2.892526e-01 -7.815936e-01
endloop
endfacet
facet normal -3.340651e-01 -7.135728e-02 9.398450e-01
outer loop
vertex 2.298504e-01 3.981126e-01 -8.880738e-01
vertex -2.220446e-16 2.220446e-16 -1.000000e+00
vertex 5.526702e-01 2.892526e-01 -7.815936e-01
endloop
endfacet
facet normal -2.999451e-01 -1.394657e-01 9.437067e-01
outer loop
vertex -2.220446e-16 2.220446e-16 -1.000000e+00
vertex 5.773503e-01 1.359740e-16 -8.164966e-01
vertex 5.526702e-01 2.892526e-01 -7.815936e-01
endloop
endfacet
facet normal -7.897535e-01 -1.394657e-01 5.973599e-01
outer loop
vertex 9.428090e-01 0.000000e+00 -3.333333e-01
vertex 5.526702e-01 2.892526e-01 -7.815936e-01
vertex 5.773503e-01 1.359740e-16 -8.164966e-01
endloop
endfacet
facet normal -1.595590e-01 -7.467386e-01 6.456952e-01
outer loop
vertex 4.082483e-01 7.071068e-01 -5.773503e-01
vertex -3.555798e-02 8.578135e-01 -5.127297e-01
vertex -2.583500e-02 6.232527e-01 -7.815936e-01
endloop
endfacet
facet normal 3.255724e-01 -7.066226e-01 6.282413e-01
outer loop
vertex -3.555798e-02 8.578135e-01 -5.127297e-01
vertex -4.714045e-01 8.164966e-01 -3.333333e-01
vertex -2.583500e-02 6.232527e-01 -7.815936e-01
endloop
endfacet
facet normal 2.740959e-01 -7.536794e-01 5.973599e-01
outer loop
vertex -4.714045e-01 8.164966e-01 -3.333333e-01
vertex -2.886751e-01 5.000000e-01 -8.164966e-01
vertex -2.583500e-02 6.232527e-01 -7.815936e-01
endloop
endfacet
facet normal 2.919174e-02 -3.294929e-01 9.437067e-01
outer loop
vertex -2.886751e-01 5.000000e-01 -8.164966e-01
vertex -2.220446e-16 2.220446e-16 -1.000000e+00
vertex -2.583500e-02 6.232527e-01 -7.815936e-01
endloop
endfacet
facet normal 1.052354e-01 -3.249875e-01 9.398450e-01
outer loop
vertex -2.220446e-16 2.220446e-16 -1.000000e+00
vertex 2.298504e-01 3.981126e-01 -8.880738e-01
vertex -2.583500e-02 6.232527e-01 -7.815936e-01
endloop
endfacet
facet normal -2.331188e-01 -6.193294e-01 7.497245e-01
outer loop
vertex 4.082483e-01 7.071068e-01 -5.773503e-01
vertex -2.583500e-02 6.232527e-01 -7.815936e-01
vertex 2.298504e-01 3.981126e-01 -8.880738e-01
endloop
endfacet
facet normal 4.491669e-01 -6.352653e-01 6.282413e-01
outer loop
vertex -4.714045e-01 8.164966e-01 -3.333333e-01
vertex -7.251092e-01 4.597008e-01 -5.127297e-01
vertex -5.268352e-01 3.340001e-01 -7.815936e-01
endloop
endfacet
facet normal 7.264741e-01 -2.351872e-01 6.456952e-01
outer loop
vertex -7.251092e-01 4.597008e-01 -5.127297e-01
vertex -8.164966e-01 1.922963e-16 -5.773503e-01
vertex -5.268352e-01 3.340001e-01 -7.815936e-01
endloop
endfacet
facet normal 6.529144e-01 -1.077779e-01 7.497245e-01
outer loop
vertex -8.164966e-01 1.922963e-16 -5.773503e-01
vertex -4.597008e-01 2.332806e-16 -8.880738e-01
vertex -5.268352e-01 3.340001e-01 -7.815936e-01
endloop
endfacet
facet normal 2.288298e-01 -2.536303e-01 9.398450e-01
outer loop
vertex -4.597008e-01 2.332806e-16 -8.880738e-01
vertex -2.220446e-16 2.220446e-16 -1.000000e+00
vertex -5.268352e-01 3.340001e-01 -7.815936e-01
endloop
endfacet
facet normal 2.707534e-01 -1.900273e-01 9.437067e-01
outer loop
vertex -2.220446e-16 2.220446e-16 -1.000000e+00
vertex -2.886751e-01 5.000000e-01 -8.164966e-01
vertex -5.268352e-01 3.340001e-01 -7.815936e-01
endloop
endfacet
facet normal 5.156575e-01 -6.142137e-01 5.973599e-01
outer loop
vertex -4.714045e-01 8.164966e-01 -3.333333e-01
vertex -5.268352e-01 3.340001e-01 -7.815936e-01
vertex -2.886751e-01 5.000000e-01 -8.164966e-01
endloop
endfacet
facet normal 7.264741e-01 2.351872e-01 6.456952e-01
outer loop
vertex -8.164966e-01 1.922963e-16 -5.773503e-01
vertex -7.251092e-01 -4.597008e-01 -5.127297e-01
vertex -5.268352e-01 -3.340001e-01 -7.815936e-01
endloop
endfacet
facet normal 4.491669e-01 6.352653e-01 6.282413e-01
outer loop
vertex -7.251092e-01 -4.597008e-01 -5.127297e-01
vertex -4.714045e-01 -8.164966e-01 -3.333333e-01
vertex -5.268352e-01 -3.340001e-01 -7.815936e-01
endloop
endfacet
facet normal 5.156575e-01 6.142137e-01 5.973599e-01
outer loop
vertex -4.714045e-01 -8.164966e-01 -3.333333e-01
vertex -2.886751e-01 -5.000000e-01 -8.164966e-01
vertex -5.268352e-01 -3.340001e-01 -7.815936e-01
endloop
endfacet
facet normal 2.707534e-01 1.900273e-01 9.437067e-01
outer loop
vertex -2.886751e-01 -5.000000e-01 -8.164966e-01
vertex -2.220446e-16 2.220446e-16 -1.000000e+00
vertex -5.268352e-01 -3.340001e-01 -7.815936e-01
endloop
endfacet
facet normal 2.288298e-01 2.536303e-01 9.398450e-01
outer loop
vertex -2.220446e-16 2.220446e-16 -1.000000e+00
vertex -4.597008e-01 2.332806e-16 -8.880738e-01
vertex -5.268352e-01 -3.340001e-01 -7.815936e-01
endloop
endfacet
facet normal 6.529144e-01 1.077779e-01 7.497245e-01
outer loop
vertex -8.164966e-01 1.922963e-16 -5.773503e-01
vertex -5.268352e-01 -3.340001e-01 -7.815936e-01
vertex -4.597008e-01 2.332806e-16 -8.880738e-01
endloop
endfacet
facet normal 3.255724e-01 7.066226e-01 6.282413e-01
outer loop
vertex -4.714045e-01 -8.164966e-01 -3.333333e-01
vertex -3.555798e-02 -8.578135e-01 -5.127297e-01
vertex -2.583500e-02 -6.232527e-01 -7.815936e-01
endloop
endfacet
facet normal -1.595590e-01 7.467386e-01 6.456952e-01
outer loop
vertex -3.555798e-02 -8.578135e-01 -5.127297e-01
vertex 4.082483e-01 -7.071068e-01 -5.773503e-01
vertex -2.583500e-02 -6.232527e-01 -7.815936e-01
endloop
endfacet
facet normal -2.331188e-01 6.193294e-01 7.497245e-01
outer loop
vertex 4.082483e-01 -7.071068e-01 -5.773503e-01
vertex 2.298504e-01 -3.981126e-01 -8.880738e-01
vertex -2.583500e-02 -6.232527e-01 -7.815936e-01
endloop
endfacet
facet normal 1.052354e-01 3.249875e-01 9.398450e-01
outer loop
vertex 2.298504e-01 -3.981126e-01 -8.880738e-01
vertex -2.220446e-16 2.220446e-16 -1.000000e+00
vertex -2.583500e-02 -6.232527e-01 -7.815936e-01
endloop
endfacet
facet normal 2.919174e-02 3.294929e-01 9.437067e-01
outer loop
vertex -2.220446e-16 2.220446e-16 -1.000000e+00
vertex -2.886751e-01 -5.000000e-01 -8.164966e-01
vertex -2.583500e-02 -6.232527e-01 -7.815936e-01
endloop
endfacet
facet normal 2.740959e-01 7.536794e-01 5.973599e-01
outer loop
vertex -4.714045e-01 -8.164966e-01 -3.333333e-01
vertex -2.583500e-02 -6.232527e-01 -7.815936e-01
vertex -2.886751e-01 -5.000000e-01 -8.164966e-01
endloop
endfacet
facet normal -7.897535e-01 1.394657e-01 5.973599e-01
outer loop
vertex 9.428090e-01 0.000000e+00 -3.333333e-01
vertex 5.773503e-01 1.359740e-16 -8.164966e-01
vertex 5.526702e-01 -2.892526e-01 -7.815936e-01
endloop
endfacet
facet normal -2.999451e-01 1.394657e-01 9.437067e-01
outer loop
vertex 5.773503e-01 1.359740e-16 -8.164966e-01
vertex -2.220446e-16 2.220446e-16 -1.000000e+00
vertex 5.526702e-01 -2.892526e-01 -7.815936e-01
endloop
endfacet
facet normal -3.340651e-01 7.135728e-02 9.398450e-01
outer loop
vertex -2.220446e-16 2.220446e-16 -1.000000e+00
vertex 2.298504e-01 -3.981126e-01 -8.880738e-01
vertex 5.526702e-01 -2.892526e-01 -7.815936e-01
endloop
endfacet
facet normal -4.197956e-01 5.115515e-01 7.497245e-01
outer loop
vertex 2.298504e-01 -3.981126e-01 -8.880738e-01
vertex 4.082483e-01 -7.071068e-01 -5.773503e-01
vertex 5.526702e-01 -2.892526e-01 -7.815936e-01
endloop
endfacet
facet normal -5.669151e-01 5.115515e-01 6.456952e-01
outer loop
vertex 4.082483e-01 -7.071068e-01 -5.773503e-01
vertex 7.606672e-01 -3.981126e-01 -5.127297e-01
vertex 5.526702e-01 -2.892526e-01 -7.815936e-01
endloop
endfacet
facet normal -7.747393e-01 7.135728e-02 6.282413e-01
outer loop
vertex 9.428090e-01 0.000000e+00 -3.333333e-01
vertex 5.526702e-01 -2.892526e-01 -7.815936e-01
vertex 7.606672e-01 -3.981126e-01 -5.127297e-01
endloop
endfacet
endsolid TriangleGroup